<mxfile host="app.diagrams.net" agent="Mozilla/5.0 (Windows NT 10.0; Win64; x64) AppleWebKit/537.36 (KHTML, like Gecko) Chrome/141.0.0.0 Safari/537.36" version="28.2.7">
  <diagram id="C5RBs43oDa-KdzZeNtuy" name="Page-1">
    <mxGraphModel dx="3432" dy="1558" grid="1" gridSize="10" guides="1" tooltips="1" connect="1" arrows="1" fold="1" page="1" pageScale="1" pageWidth="827" pageHeight="1169" math="0" shadow="0">
      <root>
        <mxCell id="WIyWlLk6GJQsqaUBKTNV-0" />
        <mxCell id="WIyWlLk6GJQsqaUBKTNV-1" parent="WIyWlLk6GJQsqaUBKTNV-0" />
        <mxCell id="zkfFHV4jXpPFQw0GAbJ--0" value="Competição" style="swimlane;fontStyle=2;align=center;verticalAlign=top;childLayout=stackLayout;horizontal=1;startSize=26;horizontalStack=0;resizeParent=1;resizeLast=0;collapsible=1;marginBottom=0;rounded=0;shadow=0;strokeWidth=1;" parent="WIyWlLk6GJQsqaUBKTNV-1" vertex="1">
          <mxGeometry x="140" y="120" width="190" height="190" as="geometry">
            <mxRectangle x="220" y="120" width="160" height="26" as="alternateBounds" />
          </mxGeometry>
        </mxCell>
        <mxCell id="zkfFHV4jXpPFQw0GAbJ--1" value="- nome: String" style="text;align=left;verticalAlign=top;spacingLeft=4;spacingRight=4;overflow=hidden;rotatable=0;points=[[0,0.5],[1,0.5]];portConstraint=eastwest;" parent="zkfFHV4jXpPFQw0GAbJ--0" vertex="1">
          <mxGeometry y="26" width="190" height="26" as="geometry" />
        </mxCell>
        <mxCell id="zkfFHV4jXpPFQw0GAbJ--2" value="- data: Date" style="text;align=left;verticalAlign=top;spacingLeft=4;spacingRight=4;overflow=hidden;rotatable=0;points=[[0,0.5],[1,0.5]];portConstraint=eastwest;rounded=0;shadow=0;html=0;" parent="zkfFHV4jXpPFQw0GAbJ--0" vertex="1">
          <mxGeometry y="52" width="190" height="26" as="geometry" />
        </mxCell>
        <mxCell id="zkfFHV4jXpPFQw0GAbJ--3" value="- local: Local" style="text;align=left;verticalAlign=top;spacingLeft=4;spacingRight=4;overflow=hidden;rotatable=0;points=[[0,0.5],[1,0.5]];portConstraint=eastwest;rounded=0;shadow=0;html=0;" parent="zkfFHV4jXpPFQw0GAbJ--0" vertex="1">
          <mxGeometry y="78" width="190" height="26" as="geometry" />
        </mxCell>
        <mxCell id="R_GcZqYqXoz2ZjPew1hv-2" value="- listaAtletas: List&lt;Atleta&gt;" style="text;align=left;verticalAlign=top;spacingLeft=4;spacingRight=4;overflow=hidden;rotatable=0;points=[[0,0.5],[1,0.5]];portConstraint=eastwest;rounded=0;shadow=0;html=0;" vertex="1" parent="zkfFHV4jXpPFQw0GAbJ--0">
          <mxGeometry y="104" width="190" height="26" as="geometry" />
        </mxCell>
        <mxCell id="zkfFHV4jXpPFQw0GAbJ--23" value="" style="line;html=1;strokeWidth=1;align=left;verticalAlign=middle;spacingTop=-1;spacingLeft=3;spacingRight=3;rotatable=0;labelPosition=right;points=[];portConstraint=eastwest;" parent="zkfFHV4jXpPFQw0GAbJ--0" vertex="1">
          <mxGeometry y="130" width="190" height="8" as="geometry" />
        </mxCell>
        <mxCell id="R_GcZqYqXoz2ZjPew1hv-3" value="+ cadastrarCompeticao():void" style="text;align=left;verticalAlign=top;spacingLeft=4;spacingRight=4;overflow=hidden;rotatable=0;points=[[0,0.5],[1,0.5]];portConstraint=eastwest;rounded=0;shadow=0;html=0;" vertex="1" parent="zkfFHV4jXpPFQw0GAbJ--0">
          <mxGeometry y="138" width="190" height="26" as="geometry" />
        </mxCell>
        <mxCell id="R_GcZqYqXoz2ZjPew1hv-4" value="+ adicionarAtleta(atleta: Atleta)" style="text;align=left;verticalAlign=top;spacingLeft=4;spacingRight=4;overflow=hidden;rotatable=0;points=[[0,0.5],[1,0.5]];portConstraint=eastwest;rounded=0;shadow=0;html=0;" vertex="1" parent="zkfFHV4jXpPFQw0GAbJ--0">
          <mxGeometry y="164" width="190" height="26" as="geometry" />
        </mxCell>
        <mxCell id="R_GcZqYqXoz2ZjPew1hv-11" value="Inscrição" style="swimlane;fontStyle=2;align=center;verticalAlign=top;childLayout=stackLayout;horizontal=1;startSize=26;horizontalStack=0;resizeParent=1;resizeLast=0;collapsible=1;marginBottom=0;rounded=0;shadow=0;strokeWidth=1;" vertex="1" parent="WIyWlLk6GJQsqaUBKTNV-1">
          <mxGeometry x="-160" y="280" width="190" height="164" as="geometry">
            <mxRectangle x="220" y="120" width="160" height="26" as="alternateBounds" />
          </mxGeometry>
        </mxCell>
        <mxCell id="R_GcZqYqXoz2ZjPew1hv-12" value="- atleta: Atleta" style="text;align=left;verticalAlign=top;spacingLeft=4;spacingRight=4;overflow=hidden;rotatable=0;points=[[0,0.5],[1,0.5]];portConstraint=eastwest;" vertex="1" parent="R_GcZqYqXoz2ZjPew1hv-11">
          <mxGeometry y="26" width="190" height="26" as="geometry" />
        </mxCell>
        <mxCell id="R_GcZqYqXoz2ZjPew1hv-13" value="- competicao: Competicao" style="text;align=left;verticalAlign=top;spacingLeft=4;spacingRight=4;overflow=hidden;rotatable=0;points=[[0,0.5],[1,0.5]];portConstraint=eastwest;rounded=0;shadow=0;html=0;" vertex="1" parent="R_GcZqYqXoz2ZjPew1hv-11">
          <mxGeometry y="52" width="190" height="26" as="geometry" />
        </mxCell>
        <mxCell id="R_GcZqYqXoz2ZjPew1hv-14" value="- local: Local" style="text;align=left;verticalAlign=top;spacingLeft=4;spacingRight=4;overflow=hidden;rotatable=0;points=[[0,0.5],[1,0.5]];portConstraint=eastwest;rounded=0;shadow=0;html=0;" vertex="1" parent="R_GcZqYqXoz2ZjPew1hv-11">
          <mxGeometry y="78" width="190" height="26" as="geometry" />
        </mxCell>
        <mxCell id="R_GcZqYqXoz2ZjPew1hv-15" value="- pais: Pais" style="text;align=left;verticalAlign=top;spacingLeft=4;spacingRight=4;overflow=hidden;rotatable=0;points=[[0,0.5],[1,0.5]];portConstraint=eastwest;rounded=0;shadow=0;html=0;" vertex="1" parent="R_GcZqYqXoz2ZjPew1hv-11">
          <mxGeometry y="104" width="190" height="26" as="geometry" />
        </mxCell>
        <mxCell id="R_GcZqYqXoz2ZjPew1hv-16" value="" style="line;html=1;strokeWidth=1;align=left;verticalAlign=middle;spacingTop=-1;spacingLeft=3;spacingRight=3;rotatable=0;labelPosition=right;points=[];portConstraint=eastwest;" vertex="1" parent="R_GcZqYqXoz2ZjPew1hv-11">
          <mxGeometry y="130" width="190" height="8" as="geometry" />
        </mxCell>
        <mxCell id="R_GcZqYqXoz2ZjPew1hv-17" value="+ registrarInscricao(): void" style="text;align=left;verticalAlign=top;spacingLeft=4;spacingRight=4;overflow=hidden;rotatable=0;points=[[0,0.5],[1,0.5]];portConstraint=eastwest;rounded=0;shadow=0;html=0;" vertex="1" parent="R_GcZqYqXoz2ZjPew1hv-11">
          <mxGeometry y="138" width="190" height="26" as="geometry" />
        </mxCell>
        <mxCell id="R_GcZqYqXoz2ZjPew1hv-19" value="Local" style="swimlane;fontStyle=2;align=center;verticalAlign=top;childLayout=stackLayout;horizontal=1;startSize=26;horizontalStack=0;resizeParent=1;resizeLast=0;collapsible=1;marginBottom=0;rounded=0;shadow=0;strokeWidth=1;" vertex="1" parent="WIyWlLk6GJQsqaUBKTNV-1">
          <mxGeometry x="440" y="120" width="280" height="200" as="geometry">
            <mxRectangle x="220" y="120" width="160" height="26" as="alternateBounds" />
          </mxGeometry>
        </mxCell>
        <mxCell id="R_GcZqYqXoz2ZjPew1hv-20" value="- nome: String" style="text;align=left;verticalAlign=top;spacingLeft=4;spacingRight=4;overflow=hidden;rotatable=0;points=[[0,0.5],[1,0.5]];portConstraint=eastwest;" vertex="1" parent="R_GcZqYqXoz2ZjPew1hv-19">
          <mxGeometry y="26" width="280" height="26" as="geometry" />
        </mxCell>
        <mxCell id="R_GcZqYqXoz2ZjPew1hv-21" value="- capacidade: Int" style="text;align=left;verticalAlign=top;spacingLeft=4;spacingRight=4;overflow=hidden;rotatable=0;points=[[0,0.5],[1,0.5]];portConstraint=eastwest;rounded=0;shadow=0;html=0;" vertex="1" parent="R_GcZqYqXoz2ZjPew1hv-19">
          <mxGeometry y="52" width="280" height="26" as="geometry" />
        </mxCell>
        <mxCell id="R_GcZqYqXoz2ZjPew1hv-22" value="- competicoesAlocadas: List&lt;Competicao&gt;" style="text;align=left;verticalAlign=top;spacingLeft=4;spacingRight=4;overflow=hidden;rotatable=0;points=[[0,0.5],[1,0.5]];portConstraint=eastwest;rounded=0;shadow=0;html=0;" vertex="1" parent="R_GcZqYqXoz2ZjPew1hv-19">
          <mxGeometry y="78" width="280" height="26" as="geometry" />
        </mxCell>
        <mxCell id="R_GcZqYqXoz2ZjPew1hv-23" value="- pais: Pais" style="text;align=left;verticalAlign=top;spacingLeft=4;spacingRight=4;overflow=hidden;rotatable=0;points=[[0,0.5],[1,0.5]];portConstraint=eastwest;rounded=0;shadow=0;html=0;" vertex="1" parent="R_GcZqYqXoz2ZjPew1hv-19">
          <mxGeometry y="104" width="280" height="26" as="geometry" />
        </mxCell>
        <mxCell id="R_GcZqYqXoz2ZjPew1hv-24" value="" style="line;html=1;strokeWidth=1;align=left;verticalAlign=middle;spacingTop=-1;spacingLeft=3;spacingRight=3;rotatable=0;labelPosition=right;points=[];portConstraint=eastwest;" vertex="1" parent="R_GcZqYqXoz2ZjPew1hv-19">
          <mxGeometry y="130" width="280" height="8" as="geometry" />
        </mxCell>
        <mxCell id="R_GcZqYqXoz2ZjPew1hv-25" value="+ alocarCompeticao(c: Competicao): Competicao" style="text;align=left;verticalAlign=top;spacingLeft=4;spacingRight=4;overflow=hidden;rotatable=0;points=[[0,0.5],[1,0.5]];portConstraint=eastwest;rounded=0;shadow=0;html=0;" vertex="1" parent="R_GcZqYqXoz2ZjPew1hv-19">
          <mxGeometry y="138" width="280" height="30" as="geometry" />
        </mxCell>
        <mxCell id="R_GcZqYqXoz2ZjPew1hv-26" value="+ alocarCompeticao(c: Competicao): Competicao" style="text;align=left;verticalAlign=top;spacingLeft=4;spacingRight=4;overflow=hidden;rotatable=0;points=[[0,0.5],[1,0.5]];portConstraint=eastwest;rounded=0;shadow=0;html=0;" vertex="1" parent="R_GcZqYqXoz2ZjPew1hv-19">
          <mxGeometry y="168" width="280" height="32" as="geometry" />
        </mxCell>
        <mxCell id="R_GcZqYqXoz2ZjPew1hv-27" value="Resultado" style="swimlane;fontStyle=2;align=center;verticalAlign=top;childLayout=stackLayout;horizontal=1;startSize=26;horizontalStack=0;resizeParent=1;resizeLast=0;collapsible=1;marginBottom=0;rounded=0;shadow=0;strokeWidth=1;" vertex="1" parent="WIyWlLk6GJQsqaUBKTNV-1">
          <mxGeometry x="490" y="500" width="270" height="190" as="geometry">
            <mxRectangle x="220" y="120" width="160" height="26" as="alternateBounds" />
          </mxGeometry>
        </mxCell>
        <mxCell id="R_GcZqYqXoz2ZjPew1hv-28" value="- competicao: Competicao" style="text;align=left;verticalAlign=top;spacingLeft=4;spacingRight=4;overflow=hidden;rotatable=0;points=[[0,0.5],[1,0.5]];portConstraint=eastwest;" vertex="1" parent="R_GcZqYqXoz2ZjPew1hv-27">
          <mxGeometry y="26" width="270" height="26" as="geometry" />
        </mxCell>
        <mxCell id="R_GcZqYqXoz2ZjPew1hv-29" value="- atletaVencedor: Atleta" style="text;align=left;verticalAlign=top;spacingLeft=4;spacingRight=4;overflow=hidden;rotatable=0;points=[[0,0.5],[1,0.5]];portConstraint=eastwest;rounded=0;shadow=0;html=0;" vertex="1" parent="R_GcZqYqXoz2ZjPew1hv-27">
          <mxGeometry y="52" width="270" height="26" as="geometry" />
        </mxCell>
        <mxCell id="R_GcZqYqXoz2ZjPew1hv-30" value="- segundoLugar: Atleta" style="text;align=left;verticalAlign=top;spacingLeft=4;spacingRight=4;overflow=hidden;rotatable=0;points=[[0,0.5],[1,0.5]];portConstraint=eastwest;rounded=0;shadow=0;html=0;" vertex="1" parent="R_GcZqYqXoz2ZjPew1hv-27">
          <mxGeometry y="78" width="270" height="26" as="geometry" />
        </mxCell>
        <mxCell id="R_GcZqYqXoz2ZjPew1hv-31" value="- terceiroLugar: Atleta" style="text;align=left;verticalAlign=top;spacingLeft=4;spacingRight=4;overflow=hidden;rotatable=0;points=[[0,0.5],[1,0.5]];portConstraint=eastwest;rounded=0;shadow=0;html=0;" vertex="1" parent="R_GcZqYqXoz2ZjPew1hv-27">
          <mxGeometry y="104" width="270" height="26" as="geometry" />
        </mxCell>
        <mxCell id="R_GcZqYqXoz2ZjPew1hv-32" value="" style="line;html=1;strokeWidth=1;align=left;verticalAlign=middle;spacingTop=-1;spacingLeft=3;spacingRight=3;rotatable=0;labelPosition=right;points=[];portConstraint=eastwest;" vertex="1" parent="R_GcZqYqXoz2ZjPew1hv-27">
          <mxGeometry y="130" width="270" height="8" as="geometry" />
        </mxCell>
        <mxCell id="R_GcZqYqXoz2ZjPew1hv-33" value="+ registrarResultado(): void" style="text;align=left;verticalAlign=top;spacingLeft=4;spacingRight=4;overflow=hidden;rotatable=0;points=[[0,0.5],[1,0.5]];portConstraint=eastwest;rounded=0;shadow=0;html=0;" vertex="1" parent="R_GcZqYqXoz2ZjPew1hv-27">
          <mxGeometry y="138" width="270" height="26" as="geometry" />
        </mxCell>
        <mxCell id="R_GcZqYqXoz2ZjPew1hv-34" value="+ gerarRelatorioMedalhas(): Map&lt;Pais, Medalha&gt;" style="text;align=left;verticalAlign=top;spacingLeft=4;spacingRight=4;overflow=hidden;rotatable=0;points=[[0,0.5],[1,0.5]];portConstraint=eastwest;rounded=0;shadow=0;html=0;" vertex="1" parent="R_GcZqYqXoz2ZjPew1hv-27">
          <mxGeometry y="164" width="270" height="26" as="geometry" />
        </mxCell>
        <mxCell id="R_GcZqYqXoz2ZjPew1hv-35" value="Medalha" style="swimlane;fontStyle=2;align=center;verticalAlign=top;childLayout=stackLayout;horizontal=1;startSize=26;horizontalStack=0;resizeParent=1;resizeLast=0;collapsible=1;marginBottom=0;rounded=0;shadow=0;strokeWidth=1;" vertex="1" parent="WIyWlLk6GJQsqaUBKTNV-1">
          <mxGeometry x="490" y="840" width="190" height="105" as="geometry">
            <mxRectangle x="220" y="120" width="160" height="26" as="alternateBounds" />
          </mxGeometry>
        </mxCell>
        <mxCell id="R_GcZqYqXoz2ZjPew1hv-36" value="- ouro: int" style="text;align=left;verticalAlign=top;spacingLeft=4;spacingRight=4;overflow=hidden;rotatable=0;points=[[0,0.5],[1,0.5]];portConstraint=eastwest;" vertex="1" parent="R_GcZqYqXoz2ZjPew1hv-35">
          <mxGeometry y="26" width="190" height="26" as="geometry" />
        </mxCell>
        <mxCell id="R_GcZqYqXoz2ZjPew1hv-37" value="- prata: int" style="text;align=left;verticalAlign=top;spacingLeft=4;spacingRight=4;overflow=hidden;rotatable=0;points=[[0,0.5],[1,0.5]];portConstraint=eastwest;rounded=0;shadow=0;html=0;" vertex="1" parent="R_GcZqYqXoz2ZjPew1hv-35">
          <mxGeometry y="52" width="190" height="26" as="geometry" />
        </mxCell>
        <mxCell id="R_GcZqYqXoz2ZjPew1hv-38" value="- bronze: int" style="text;align=left;verticalAlign=top;spacingLeft=4;spacingRight=4;overflow=hidden;rotatable=0;points=[[0,0.5],[1,0.5]];portConstraint=eastwest;rounded=0;shadow=0;html=0;" vertex="1" parent="R_GcZqYqXoz2ZjPew1hv-35">
          <mxGeometry y="78" width="190" height="26" as="geometry" />
        </mxCell>
        <mxCell id="R_GcZqYqXoz2ZjPew1hv-44" value="Atleta" style="swimlane;fontStyle=2;align=center;verticalAlign=top;childLayout=stackLayout;horizontal=1;startSize=26;horizontalStack=0;resizeParent=1;resizeLast=0;collapsible=1;marginBottom=0;rounded=0;shadow=0;strokeWidth=1;" vertex="1" parent="WIyWlLk6GJQsqaUBKTNV-1">
          <mxGeometry x="80" y="500" width="310" height="140" as="geometry">
            <mxRectangle x="220" y="120" width="160" height="26" as="alternateBounds" />
          </mxGeometry>
        </mxCell>
        <mxCell id="R_GcZqYqXoz2ZjPew1hv-45" value="- nome: String" style="text;align=left;verticalAlign=top;spacingLeft=4;spacingRight=4;overflow=hidden;rotatable=0;points=[[0,0.5],[1,0.5]];portConstraint=eastwest;" vertex="1" parent="R_GcZqYqXoz2ZjPew1hv-44">
          <mxGeometry y="26" width="310" height="26" as="geometry" />
        </mxCell>
        <mxCell id="R_GcZqYqXoz2ZjPew1hv-46" value="- idade: int" style="text;align=left;verticalAlign=top;spacingLeft=4;spacingRight=4;overflow=hidden;rotatable=0;points=[[0,0.5],[1,0.5]];portConstraint=eastwest;rounded=0;shadow=0;html=0;" vertex="1" parent="R_GcZqYqXoz2ZjPew1hv-44">
          <mxGeometry y="52" width="310" height="26" as="geometry" />
        </mxCell>
        <mxCell id="R_GcZqYqXoz2ZjPew1hv-47" value="- pais: Pais" style="text;align=left;verticalAlign=top;spacingLeft=4;spacingRight=4;overflow=hidden;rotatable=0;points=[[0,0.5],[1,0.5]];portConstraint=eastwest;rounded=0;shadow=0;html=0;" vertex="1" parent="R_GcZqYqXoz2ZjPew1hv-44">
          <mxGeometry y="78" width="310" height="26" as="geometry" />
        </mxCell>
        <mxCell id="R_GcZqYqXoz2ZjPew1hv-49" value="" style="line;html=1;strokeWidth=1;align=left;verticalAlign=middle;spacingTop=-1;spacingLeft=3;spacingRight=3;rotatable=0;labelPosition=right;points=[];portConstraint=eastwest;" vertex="1" parent="R_GcZqYqXoz2ZjPew1hv-44">
          <mxGeometry y="104" width="310" height="8" as="geometry" />
        </mxCell>
        <mxCell id="R_GcZqYqXoz2ZjPew1hv-50" value="+ participarCompeticao(c: Competicao): Competicao" style="text;align=left;verticalAlign=top;spacingLeft=4;spacingRight=4;overflow=hidden;rotatable=0;points=[[0,0.5],[1,0.5]];portConstraint=eastwest;rounded=0;shadow=0;html=0;" vertex="1" parent="R_GcZqYqXoz2ZjPew1hv-44">
          <mxGeometry y="112" width="310" height="26" as="geometry" />
        </mxCell>
        <mxCell id="R_GcZqYqXoz2ZjPew1hv-52" value="Pais" style="swimlane;fontStyle=2;align=center;verticalAlign=top;childLayout=stackLayout;horizontal=1;startSize=26;horizontalStack=0;resizeParent=1;resizeLast=0;collapsible=1;marginBottom=0;rounded=0;shadow=0;strokeWidth=1;" vertex="1" parent="WIyWlLk6GJQsqaUBKTNV-1">
          <mxGeometry x="140" y="830" width="190" height="105" as="geometry">
            <mxRectangle x="220" y="120" width="160" height="26" as="alternateBounds" />
          </mxGeometry>
        </mxCell>
        <mxCell id="R_GcZqYqXoz2ZjPew1hv-53" value="- nome: String" style="text;align=left;verticalAlign=top;spacingLeft=4;spacingRight=4;overflow=hidden;rotatable=0;points=[[0,0.5],[1,0.5]];portConstraint=eastwest;" vertex="1" parent="R_GcZqYqXoz2ZjPew1hv-52">
          <mxGeometry y="26" width="190" height="26" as="geometry" />
        </mxCell>
        <mxCell id="R_GcZqYqXoz2ZjPew1hv-54" value="- codigoISO: String" style="text;align=left;verticalAlign=top;spacingLeft=4;spacingRight=4;overflow=hidden;rotatable=0;points=[[0,0.5],[1,0.5]];portConstraint=eastwest;rounded=0;shadow=0;html=0;" vertex="1" parent="R_GcZqYqXoz2ZjPew1hv-52">
          <mxGeometry y="52" width="190" height="26" as="geometry" />
        </mxCell>
        <mxCell id="R_GcZqYqXoz2ZjPew1hv-55" value="- medalhas: Medalha" style="text;align=left;verticalAlign=top;spacingLeft=4;spacingRight=4;overflow=hidden;rotatable=0;points=[[0,0.5],[1,0.5]];portConstraint=eastwest;rounded=0;shadow=0;html=0;" vertex="1" parent="R_GcZqYqXoz2ZjPew1hv-52">
          <mxGeometry y="78" width="190" height="26" as="geometry" />
        </mxCell>
        <mxCell id="R_GcZqYqXoz2ZjPew1hv-58" value="1" style="endArrow=open;html=1;endSize=12;startArrow=diamondThin;startSize=14;startFill=0;edgeStyle=orthogonalEdgeStyle;align=left;verticalAlign=bottom;rounded=0;" edge="1" parent="WIyWlLk6GJQsqaUBKTNV-1">
          <mxGeometry x="-1" y="3" relative="1" as="geometry">
            <mxPoint x="330" y="219.41" as="sourcePoint" />
            <mxPoint x="440" y="219" as="targetPoint" />
          </mxGeometry>
        </mxCell>
        <mxCell id="R_GcZqYqXoz2ZjPew1hv-60" value="1" style="text;html=1;whiteSpace=wrap;strokeColor=none;fillColor=none;align=center;verticalAlign=middle;rounded=0;" vertex="1" parent="WIyWlLk6GJQsqaUBKTNV-1">
          <mxGeometry x="390" y="194" width="60" height="30" as="geometry" />
        </mxCell>
        <mxCell id="R_GcZqYqXoz2ZjPew1hv-64" value="" style="endArrow=none;html=1;edgeStyle=orthogonalEdgeStyle;rounded=0;exitX=0.5;exitY=0;exitDx=0;exitDy=0;entryX=0.448;entryY=0.982;entryDx=0;entryDy=0;entryPerimeter=0;" edge="1" parent="WIyWlLk6GJQsqaUBKTNV-1" source="R_GcZqYqXoz2ZjPew1hv-44" target="R_GcZqYqXoz2ZjPew1hv-4">
          <mxGeometry relative="1" as="geometry">
            <mxPoint x="180" y="370" as="sourcePoint" />
            <mxPoint x="340" y="370" as="targetPoint" />
            <Array as="points">
              <mxPoint x="235" y="310" />
              <mxPoint x="225" y="310" />
            </Array>
          </mxGeometry>
        </mxCell>
        <mxCell id="R_GcZqYqXoz2ZjPew1hv-65" value="1, N" style="edgeLabel;resizable=0;html=1;align=left;verticalAlign=bottom;" connectable="0" vertex="1" parent="R_GcZqYqXoz2ZjPew1hv-64">
          <mxGeometry x="-1" relative="1" as="geometry" />
        </mxCell>
        <mxCell id="R_GcZqYqXoz2ZjPew1hv-67" value="1" style="edgeLabel;resizable=0;html=1;align=left;verticalAlign=bottom;" connectable="0" vertex="1" parent="WIyWlLk6GJQsqaUBKTNV-1">
          <mxGeometry x="240" y="330" as="geometry" />
        </mxCell>
        <mxCell id="R_GcZqYqXoz2ZjPew1hv-68" value="" style="endArrow=none;html=1;edgeStyle=orthogonalEdgeStyle;rounded=0;exitX=0.5;exitY=0;exitDx=0;exitDy=0;entryX=0.448;entryY=0.982;entryDx=0;entryDy=0;entryPerimeter=0;" edge="1" parent="WIyWlLk6GJQsqaUBKTNV-1">
          <mxGeometry relative="1" as="geometry">
            <mxPoint x="230" y="830" as="sourcePoint" />
            <mxPoint x="220" y="640" as="targetPoint" />
            <Array as="points">
              <mxPoint x="230" y="640" />
              <mxPoint x="220" y="640" />
            </Array>
          </mxGeometry>
        </mxCell>
        <mxCell id="R_GcZqYqXoz2ZjPew1hv-69" value="1" style="edgeLabel;resizable=0;html=1;align=left;verticalAlign=bottom;" connectable="0" vertex="1" parent="R_GcZqYqXoz2ZjPew1hv-68">
          <mxGeometry x="-1" relative="1" as="geometry" />
        </mxCell>
        <mxCell id="R_GcZqYqXoz2ZjPew1hv-70" value="1" style="edgeLabel;resizable=0;html=1;align=left;verticalAlign=bottom;" connectable="0" vertex="1" parent="WIyWlLk6GJQsqaUBKTNV-1">
          <mxGeometry x="240" y="650" as="geometry">
            <mxPoint x="-8" y="5" as="offset" />
          </mxGeometry>
        </mxCell>
        <mxCell id="R_GcZqYqXoz2ZjPew1hv-71" value="" style="endArrow=open;endFill=1;endSize=12;html=1;rounded=0;exitX=-0.002;exitY=0.311;exitDx=0;exitDy=0;exitPerimeter=0;entryX=0.426;entryY=1.016;entryDx=0;entryDy=0;entryPerimeter=0;" edge="1" parent="WIyWlLk6GJQsqaUBKTNV-1" source="R_GcZqYqXoz2ZjPew1hv-46" target="R_GcZqYqXoz2ZjPew1hv-17">
          <mxGeometry width="160" relative="1" as="geometry">
            <mxPoint x="390" y="580" as="sourcePoint" />
            <mxPoint x="-70" y="440" as="targetPoint" />
            <Array as="points">
              <mxPoint x="-80" y="560" />
            </Array>
          </mxGeometry>
        </mxCell>
        <mxCell id="R_GcZqYqXoz2ZjPew1hv-73" value="" style="endArrow=open;endFill=1;endSize=12;html=1;rounded=0;entryX=0.009;entryY=0.032;entryDx=0;entryDy=0;entryPerimeter=0;exitX=0.424;exitY=-0.014;exitDx=0;exitDy=0;exitPerimeter=0;" edge="1" parent="WIyWlLk6GJQsqaUBKTNV-1" source="R_GcZqYqXoz2ZjPew1hv-11" target="zkfFHV4jXpPFQw0GAbJ--3">
          <mxGeometry width="160" relative="1" as="geometry">
            <mxPoint x="-80" y="200" as="sourcePoint" />
            <mxPoint x="140" y="200" as="targetPoint" />
            <Array as="points">
              <mxPoint x="-80" y="199" />
            </Array>
          </mxGeometry>
        </mxCell>
        <mxCell id="R_GcZqYqXoz2ZjPew1hv-78" value="1" style="edgeLabel;resizable=0;html=1;align=left;verticalAlign=bottom;" connectable="0" vertex="1" parent="WIyWlLk6GJQsqaUBKTNV-1">
          <mxGeometry x="240" y="310" as="geometry">
            <mxPoint x="-315" y="168" as="offset" />
          </mxGeometry>
        </mxCell>
        <mxCell id="R_GcZqYqXoz2ZjPew1hv-79" value="1" style="edgeLabel;resizable=0;html=1;align=left;verticalAlign=bottom;" connectable="0" vertex="1" parent="WIyWlLk6GJQsqaUBKTNV-1">
          <mxGeometry x="50" y="520" as="geometry">
            <mxPoint x="13" y="40" as="offset" />
          </mxGeometry>
        </mxCell>
        <mxCell id="R_GcZqYqXoz2ZjPew1hv-80" value="1" style="edgeLabel;resizable=0;html=1;align=left;verticalAlign=bottom;" connectable="0" vertex="1" parent="WIyWlLk6GJQsqaUBKTNV-1">
          <mxGeometry x="240" y="110" as="geometry">
            <mxPoint x="-315" y="168" as="offset" />
          </mxGeometry>
        </mxCell>
        <mxCell id="R_GcZqYqXoz2ZjPew1hv-87" value="" style="endArrow=none;html=1;edgeStyle=orthogonalEdgeStyle;rounded=0;exitX=0;exitY=0.5;exitDx=0;exitDy=0;entryX=1.001;entryY=-0.055;entryDx=0;entryDy=0;entryPerimeter=0;" edge="1" parent="WIyWlLk6GJQsqaUBKTNV-1" source="R_GcZqYqXoz2ZjPew1hv-30" target="R_GcZqYqXoz2ZjPew1hv-47">
          <mxGeometry relative="1" as="geometry">
            <mxPoint x="500" y="590" as="sourcePoint" />
            <mxPoint x="490" y="400" as="targetPoint" />
            <Array as="points">
              <mxPoint x="490" y="570" />
              <mxPoint x="390" y="570" />
            </Array>
          </mxGeometry>
        </mxCell>
        <mxCell id="R_GcZqYqXoz2ZjPew1hv-88" value="1, N" style="edgeLabel;resizable=0;html=1;align=left;verticalAlign=bottom;" connectable="0" vertex="1" parent="R_GcZqYqXoz2ZjPew1hv-87">
          <mxGeometry x="-1" relative="1" as="geometry">
            <mxPoint x="-30" y="-21" as="offset" />
          </mxGeometry>
        </mxCell>
        <mxCell id="R_GcZqYqXoz2ZjPew1hv-90" value="1, N" style="edgeLabel;resizable=0;html=1;align=left;verticalAlign=bottom;" connectable="0" vertex="1" parent="WIyWlLk6GJQsqaUBKTNV-1">
          <mxGeometry x="390" y="570" as="geometry" />
        </mxCell>
        <mxCell id="R_GcZqYqXoz2ZjPew1hv-97" value="" style="endArrow=none;html=1;edgeStyle=orthogonalEdgeStyle;rounded=0;exitX=0.5;exitY=0;exitDx=0;exitDy=0;entryX=0.709;entryY=1.032;entryDx=0;entryDy=0;entryPerimeter=0;" edge="1" parent="WIyWlLk6GJQsqaUBKTNV-1" target="R_GcZqYqXoz2ZjPew1hv-4">
          <mxGeometry relative="1" as="geometry">
            <mxPoint x="550" y="500" as="sourcePoint" />
            <mxPoint x="550" y="310" as="targetPoint" />
            <Array as="points">
              <mxPoint x="550" y="400" />
              <mxPoint x="275" y="400" />
            </Array>
          </mxGeometry>
        </mxCell>
        <mxCell id="R_GcZqYqXoz2ZjPew1hv-98" value="1, N" style="edgeLabel;resizable=0;html=1;align=left;verticalAlign=bottom;" connectable="0" vertex="1" parent="R_GcZqYqXoz2ZjPew1hv-97">
          <mxGeometry x="-1" relative="1" as="geometry" />
        </mxCell>
        <mxCell id="R_GcZqYqXoz2ZjPew1hv-99" value="1" style="edgeLabel;resizable=0;html=1;align=left;verticalAlign=bottom;" connectable="0" vertex="1" parent="WIyWlLk6GJQsqaUBKTNV-1">
          <mxGeometry x="280" y="330" as="geometry" />
        </mxCell>
        <mxCell id="R_GcZqYqXoz2ZjPew1hv-100" value="1,N" style="endArrow=open;html=1;endSize=12;startArrow=diamondThin;startSize=14;startFill=0;edgeStyle=orthogonalEdgeStyle;align=left;verticalAlign=bottom;rounded=0;" edge="1" parent="WIyWlLk6GJQsqaUBKTNV-1">
          <mxGeometry x="-1" y="3" relative="1" as="geometry">
            <mxPoint x="330" y="880" as="sourcePoint" />
            <mxPoint x="490" y="880" as="targetPoint" />
          </mxGeometry>
        </mxCell>
        <mxCell id="R_GcZqYqXoz2ZjPew1hv-102" value="&lt;span style=&quot;font-size: 11px; text-wrap-mode: nowrap; background-color: rgb(255, 255, 255);&quot;&gt;N&lt;/span&gt;" style="text;whiteSpace=wrap;html=1;" vertex="1" parent="WIyWlLk6GJQsqaUBKTNV-1">
          <mxGeometry x="460" y="850" width="20" height="20" as="geometry" />
        </mxCell>
      </root>
    </mxGraphModel>
  </diagram>
</mxfile>
